# xmcd
#
# Track frame offsets:
#	150
#	20607
#	43783
#	64263
#	84359
#	101583
#	121159
#	138591
#	158911
#	194782
#
# Disc length: 2847 seconds
# Revision: 0
# Processed by: cddbd v1.5.2PL0 Copyright (c) Steve Scherf et al.
# Submitted via: dBpowerAMP V12.0
#
DISCID=8b0b1d0a
DTITLE=Gurf Morlix - Gurf Morlix Finds The Present Tense
DYEAR=2013
DGENRE=Country
TTITLE0=My Life's Been Taken
TTITLE1=Lookin' For You
TTITLE2=Series of Closin' Doors
TTITLE3=Small Window
TTITLE4=Present Tense
TTITLE5=Gasoline
TTITLE6=Bang Bang Bang
TTITLE7=You Walk Away
TTITLE8=These Are My Blues
TTITLE9=Empty Cup
EXTD=
EXTT0=
EXTT1=
EXTT2=
EXTT3=
EXTT4=
EXTT5=
EXTT6=
EXTT7=
EXTT8=
EXTT9=
PLAYORDER=
